<svg width="338" height="363" viewBox="0 0 338 363" fill="none" xmlns="http://www.w3.org/2000/svg">
<path d="M71.5593 262.477L72.4255 264.27C71.6255 263.32 69.3242 259.452 69.3881 259.992C69.0982 258.93 69.2764 257.692 70.109 258.518C68.924 257.472 67.6168 256.478 66.5427 255.326C66.9937 255.845 67.6935 254.895 68.0001 255.045C67.1298 253.43 65.3781 252.954 65.8061 254.059C64.691 250.522 64.764 251.507 64.1212 248.529C63.531 247.643 63.1615 249.158 63.4487 249.9C62.0244 247.919 61.3539 246.656 61.012 245.544L60.9367 245.442L60.9524 245.391C60.544 244.186 60.2161 243.302 58.9669 242.046L61.6757 243.599L60.9576 245.393L61.0104 245.549C62.5692 247.84 63.234 246.914 63.8497 246.201C63.4059 245.349 62.9773 244.501 62.559 243.657C61.1066 242.26 59.6805 240.832 58.193 239.386C58.4938 239.573 59.714 239.774 59.8048 239.679C59.2865 239.525 57.7282 237.324 56.5685 234.389C55.5086 231.73 54.3531 228.69 53.6662 226.403C53.6591 226.39 53.656 226.4 53.6422 226.39L53.4424 225.691C53.5001 225.905 53.5912 226.173 53.6611 226.402C53.8675 226.678 53.8457 226.128 53.6981 225.277C25.2213 250.438 14.6328 298.09 26.0688 311.887L76.4348 270.161C75.0845 268.303 75.7736 270.4 73.871 267.752C73.8603 266.545 74.4184 267.5 75.9928 268.901C76.1408 269.002 76.3704 269.184 76.8103 269.593C76.4992 269.33 76.233 269.103 75.9928 268.901C75.5574 268.605 76.1854 269.441 76.5841 270.039L78.2352 268.67C77.0355 267.435 76.0533 266.86 75.1014 266.277C74.0229 265.504 72.937 264.701 71.5444 262.489L71.5593 262.477Z" fill="#F79E42"/>
<path d="M202.17 270.763C202.064 270.742 202.032 270.665 202.02 270.577C197.239 274.411 191.897 278.032 185.941 281.393C185.674 281.714 185.002 282.263 184.52 282.703C181.901 283.797 178.275 285.472 175.092 287.019C173.228 287.914 171.493 288.568 170.126 289.01C167.431 290.115 164.667 291.186 161.767 292.194C160.545 292.547 159.383 292.85 158.22 293.154L158.357 293.638C159.314 293.367 160.101 293.227 160.419 293.414C159.869 293.654 159.192 293.911 158.509 294.166L176.837 358.592C194.3 353.629 212.833 307.233 202.762 270.128L202.171 270.758L202.17 270.763ZM162.421 293.749C158.906 294.752 162.595 293.455 162.758 293.069C165.261 292.264 162.639 293.457 162.421 293.749ZM169.311 290.629L169.138 289.95C169.609 289.966 169.703 290.061 170.466 289.892L169.309 290.635L169.311 290.629ZM193.166 277.034L194.676 275.997L195.367 275.644L193.166 277.034Z" fill="#F79E42"/>
<path d="M323.17 191.181C328.594 173.841 299.868 132.806 263.241 120.936L263.247 120.915L262.492 120.969C256.501 121.303 250.531 122.444 244.695 124.079C244.704 124.143 244.727 124.212 244.737 124.271C244.719 124.22 244.687 124.143 244.665 124.086C244.433 124.149 244.201 124.212 243.972 124.282C244.024 124.662 244.105 125.09 244.246 125.597L244.869 126.141L244.777 126.952C245.617 129.633 245.116 125.976 245.958 128.668C245.648 129.625 246.522 132.506 247.079 135.581C247.764 138.623 248.414 141.777 247.941 143.064C248.501 143.941 248.367 142.624 248.222 141.326C248.07 140.032 247.729 138.791 248.373 139.739C248.446 140.595 248.326 141.006 248.484 142.828L248.93 142.12C249.807 150.615 249.477 153.882 249.451 161.412L249.356 161.103C248.996 163.773 249.012 165.216 249.404 166.456C249.123 166.991 249.108 165.05 248.828 166.072C249.269 167.718 249.029 169.306 248.659 170.804L256.726 170.436L256.737 170.4L323.176 191.177L323.17 191.181Z" fill="#F79E42"/>
<path d="M82.4836 98.3178C84.5439 96.5826 82.8685 98.4134 81.4365 101.55L83.4402 99.5792C82.8164 100.518 82.1577 101.206 81.5588 102.265C82.9093 101 83.8981 99.5462 84.7257 98.2164C85.6242 96.9475 86.2958 95.7433 86.8095 94.8712C87.9 93.9801 86.9374 96.4436 89.3857 93.3334C92.9072 88.9686 87.8576 93.3516 89.9944 90.7278L92.339 89.6169C95.0408 86.2095 97.7729 84.4005 100.758 82.3503C101.364 81.7975 101.634 81.483 101.743 81.2925L101.636 81.3662L101.78 81.1359C101.771 80.8366 100.87 81.2205 102.571 79.8899L101.78 81.1359C101.784 81.1764 101.775 81.224 101.738 81.2909C102.269 80.9109 102.799 80.4971 103.329 80.0832C99.4866 75.5084 95.2686 71.2659 90.585 67.6473C90.585 67.6473 90.2612 67.2794 90.0361 67.2104C90.0223 67.2005 90.0085 67.1907 89.9963 67.1758L89.99 67.1962C53.0866 56.243 6.17786 73.8096 0.830734 91.1731L67.3649 111.661L67.354 111.696L73.0152 115.979C73.0501 115.883 73.0787 115.808 73.1251 115.693L73.0203 115.98L73.4514 116.308C73.5917 116.088 73.735 115.858 73.891 115.587C76.1327 111.635 74.2921 111.614 76.7058 108.89C76.4254 109.33 76.457 109.446 76.1714 109.885L77.3951 108.486C76.0852 107.172 83.4189 99.5391 82.4852 98.3127L82.4836 98.3178ZM87.4372 92.7694C88.2327 93.1141 86.7227 93.5296 85.2932 95.3071C85.9695 94.5073 86.7676 93.5657 87.4372 92.7694ZM73.0738 114.419L73.3164 113.956L74.0808 113.854L73.0738 114.419Z" fill="#F79E42"/>
<path d="M160.832 59.5095C161.978 59.9337 162.984 60.3038 166.566 60.0143C164.124 59.579 168.682 59.0071 162.828 58.913C165.653 58.6656 168.284 59.6852 171.204 59.6013L169.265 60.0474C170.294 60.1952 171.478 60.0939 172.052 60.0852L171.754 60.5814C173.578 60.3462 175.218 60.6756 176.67 60.9418C178.116 61.2454 179.342 61.683 180.52 61.311C178.863 61.8942 183.127 61.898 184.416 62.6065C181.393 62.5694 176.246 60.4816 175.665 61.5008C176.974 61.8856 178.221 61.798 179.44 62.3677C180.294 62.4503 180.771 62.5353 179.656 62.4674C179.572 62.4305 179.509 62.3999 179.44 62.3677C178.524 62.2882 177.194 62.1714 176.818 62.3023C181.016 63.8358 183.716 63.4103 186.421 63.9154C184.87 63.5179 183.282 63.2549 181.723 62.9168C182.323 62.1493 183.853 63.2902 185.364 62.9475C187.547 64.0423 189.492 64.1968 191.263 65.1204C190.773 64.9308 190.712 65.0017 190.221 64.8121C195.223 66.5531 195.86 68.6396 197.669 69.6029C199.406 70.617 203.058 71.9438 202.009 70.9841C203.616 71.5275 195.707 68.0611 198.89 68.3939C199.924 69.6788 201.354 70.235 203.188 71.0268C204.929 71.9579 207.103 73.1172 209.571 75.2898C206.922 74.1081 210.524 76.8187 208.204 75.7154C210.86 77.2743 210.927 77.3844 212.262 77.9056L212.598 78.5795L222.47 46.7731C227.325 31.1223 218.571 14.4931 202.916 9.63614C187.26 4.77921 170.633 13.5299 165.773 29.1792L156.536 58.953C158.889 58.8185 159.931 59.1267 160.834 59.5044L160.832 59.5095Z" fill="#F79E42"/>
<path d="M242.619 178.963C241.717 180.153 240.851 181.353 240.741 179.831L240.398 181.679C239.827 180.894 241.923 175.996 241.295 174.774L242.607 170.169L242.005 170.197C241.965 170.509 241.927 170.799 241.897 171.025C241.924 170.681 241.957 170.445 241.983 170.195C242.038 169.725 242.091 169.35 242.147 169.132C242.352 167.695 242.512 166.446 241.84 168.271C242.754 164.87 243.02 161.32 243.339 157.78C243.222 154.236 243.367 150.643 242.794 147.127C242.297 143.6 241.861 140.075 240.967 136.656C240.565 134.938 240.274 133.204 239.848 131.506C239.362 129.824 238.91 128.141 238.502 126.443C238.16 125.566 238.083 126.164 238.035 126.558C237.979 125.556 237.82 124.998 237.613 124.615C237.267 123.989 236.782 123.857 236.379 123.09L235.85 119.284C234.991 117.997 235.172 119.211 234.95 119.188C232.126 112.771 229.319 106.392 225.614 101.994C224.873 100.284 226.563 101.854 225.213 99.8507C226.442 102.998 220.434 94.6808 221.185 96.7578C220.723 94.1036 215.491 90.3001 217.34 89.9662C215.357 87.8191 215.206 88.7129 215.7 89.4016C214.052 87.5086 212.335 86.2098 210.601 85.0737C210.015 84.6868 209.423 84.3152 208.83 83.9487C208.312 83.1184 205.097 81.0636 201.781 78.9164C198.501 76.7075 194.741 75.0618 193.694 73.7671C195.181 75.3982 193.424 73.953 191.493 73.5341C191.964 73.9137 192.403 74.3617 192.823 74.8373C191.563 74.1095 190.147 73.7257 188.817 73.1502C187.965 72.8999 187.742 72.7868 187.764 72.7322C187.08 72.444 188.06 72.4424 186.346 71.6257C183.576 70.491 183.294 70.9022 181.628 70.8222L182.042 71.0221L180.078 70.599C178.632 70.2226 185.345 71.2403 180.72 69.7492C180.595 69.9011 177.643 70.0535 176.487 69.2792C178.873 69.9105 178.678 69.3973 177.83 68.9862C176.698 68.7174 175.596 68.3124 174.429 68.2119L175.419 69.1814C168.531 67.8972 161.213 67.3036 153.801 67.8174C150.769 68.0292 147.724 68.3768 144.679 69.0154C144.679 68.6516 142.81 68.9962 141.038 69.2978C139.306 69.7626 137.655 70.1629 137.971 69.5156L138.397 69.4952C140.918 68.6288 137.435 68.9091 135.376 69.6543C137.636 69.329 131.823 71.8215 137.116 70.4061L133.236 72.087C132.472 73.4305 129.929 74.475 126.799 75.5015C123.682 76.5379 120.216 78.1666 117.533 79.8508C117.892 79.5747 117.943 79.428 117.961 79.3497C115.691 81.0595 113.021 82.7197 110.695 83.9706C110.193 84.2754 109.729 84.5642 109.289 84.8489C107.758 85.8285 106.624 86.6393 106.285 87.0333L105.541 86.9057C102.18 90.4916 102.033 91.1179 97.5184 94.7586C97.5089 94.6437 97.886 94.0711 97.1359 94.6189C96.3731 95.8286 95.8402 97.2376 93.104 100.064L93.0813 99.8274C91.6878 101.342 90.4064 102.947 89.2562 104.653C88.588 104.112 87.2101 106.415 85.6905 108.87C84.3515 111.447 82.9769 114.232 81.673 114.56C81.4386 115.434 80.4704 117.806 79.6974 119.779C79.3882 120.568 79.108 121.3 78.9248 121.842C79.0272 121.874 78.9972 122.172 78.781 122.822C78.6104 122.904 78.6973 122.511 78.9248 121.842C78.8532 121.82 78.7266 121.904 78.5113 122.169C78.1742 124.6 75.6723 128.36 74.8278 130.876C74.4471 132.556 74.9823 131.942 75.5179 131.345C73.6399 134.239 73.3762 140.666 72.6773 141.722C71.8551 144.111 71.7684 142.422 71.1977 142.969C70.2348 146.602 72.8583 142.829 70.7203 147.428C70.8094 146.845 71.0802 145.798 70.8607 146.167C70.1626 147.951 67.2952 150.675 67.121 152.631L67.7792 151.506C67.1981 154.971 64.2217 159.128 65.1747 159.963L65.7847 159.781C63.6491 165.449 65.3872 162.3 63.3681 168.099L63.2964 168.004C62.8931 170.634 61.9749 171.93 62.587 173.366L62.8721 172.491C62.3195 175.735 62.1892 176.014 61.7331 179.327C61.7614 179.727 61.6789 181.347 61.4374 181.787C61.9896 182.013 61.0837 189.53 60.9574 191.019C61.0286 188.377 60.6404 189.607 60.2961 190.346C60.7443 191.933 60.7871 192.998 60.3994 195.156C61.2975 195.477 62.256 195.91 62.3272 200.096C62.1896 199.449 62.1091 198.434 61.9246 198.853C61.7405 199.289 61.9469 200.259 62.0192 200.589C61.8383 201.014 61.687 199.664 61.3806 200.152C62.3612 202.96 61.8247 205.056 62.4454 209.147C62.0692 207.873 61.9885 209.012 61.7235 209.529C62.7655 209.709 61.7966 215.26 62.8221 213.504C62.9384 217.596 64.2938 222.595 65.4381 226.986C65.9496 228.603 66.4441 230.075 66.8936 231.439C67.6482 233.724 68.2474 235.603 68.3134 236.647C68.1881 237.622 69.7995 239.431 70.3776 240.722L69.8901 240.723C72.3107 244.001 71.4222 243.448 74.1829 247.277C72.8587 245.791 72.9186 246.655 73.5315 248.544L75.9367 250.904L75.6448 251.783C76.5362 252.8 77.1628 254.134 77.798 255.476C77.4393 254.857 77.5821 255.231 77.4949 255.333C78.5459 255.537 81.6618 260.326 82.5514 260.783C82.5913 262.497 84.8895 263.8 84.7725 265.186C85.1423 265.495 85.5676 265.933 86.0096 266.427C85.9693 265.883 86.0626 265.542 86.2893 265.679C86.4011 265.752 86.5386 265.906 86.7294 266.306C86.7976 266.394 86.85 266.461 86.9146 266.542L87.0193 265.836C87.2628 265.407 87.8847 267.175 88.6215 268.66C88.8986 269.126 89.1757 269.591 89.4334 270.029C89.5484 270.165 89.6532 270.297 89.7316 270.389C89.6694 270.336 89.6001 270.27 89.5288 270.192C89.9501 270.881 90.4772 271.535 91.3785 272.265C93.8746 276.281 99.2001 278.866 102.241 282.949C101.74 282.375 100.969 281.641 100.634 281.583C103.787 284.351 106.658 287.51 109.103 288.628L109.23 288.102C110.549 288.859 111.735 289.464 112.842 290.016C113.395 290.275 113.922 290.526 114.446 290.771C114.936 290.999 115.579 291.275 115.63 291.274L115.798 290.726C118.743 291.708 126.482 290.64 128.68 291.538C129.505 291.058 133.626 291.18 135.638 290.717L136.222 291.075C138.891 290.769 140.505 290.324 142.048 289.857C141.792 289.868 141.571 289.878 141.297 289.895C142.575 289.285 143.996 289.145 145.261 289.034C146.22 288.825 147.332 288.651 148.74 288.495C148.415 289.006 146.967 288.909 145.261 289.034C144.035 289.308 143.038 289.567 142.048 289.857C144.81 289.775 147.411 289.123 149.824 288.391C150.808 288.066 151.78 287.743 152.751 287.426L179.932 274.173C179.886 274.159 179.831 274.158 179.799 274.132C180.08 274.056 180.283 273.961 180.533 273.876L185.403 271.502C186.146 270.667 190.607 267.984 189.024 268.181C191.18 267.611 190.191 267.386 191.68 267.149C190.233 268.037 188.994 269.174 187.859 270.303L190.075 269.225C190.419 268.961 190.678 268.828 190.838 268.855L191.911 268.333C192.392 267.893 192.731 267.538 192.733 267.785C192.537 267.915 192.344 268.069 192.15 268.211L194.855 266.891C194.868 266.94 194.876 266.987 194.889 267.036C195.647 265.97 196.763 264.701 195.939 264.963C197.241 264.148 197.072 264.807 199.288 262.583C200.517 260.984 196.964 263.627 196.191 263.977C197.791 262.246 197.669 262.114 197.593 261.923L197.383 261.987L197.571 261.832C197.553 261.653 197.697 261.311 198.746 260.116C200.002 259.36 200.656 258.906 201.477 258.184L204.447 254.741L204.352 254.796C203.868 255.168 203.394 255.526 202.941 255.874C202.979 255.657 203.883 255.066 204.352 254.796C204.933 254.325 205.552 253.821 206.092 253.209C206.862 252.214 207.557 251.336 208.039 250.42C208.939 249.292 208.783 249.91 208.782 250.15C209.324 249.477 209.812 248.838 210.252 248.223C210.431 247.841 210.595 247.45 210.866 247.007C210.718 247.068 210.664 247.079 210.935 246.871L210.866 247.007C210.958 246.962 211.069 246.89 211.167 246.808C210.953 247.269 210.602 247.72 210.25 248.228C210.001 248.767 209.706 249.309 208.991 250.035C208.803 250.302 208.776 250.261 208.775 250.154C207.935 251.178 207.013 252.232 206.091 253.214C205.649 253.834 205.096 254.414 204.535 255.11C207.02 252.923 203.258 257.432 206.295 254.027C205.327 255.431 206.155 255.03 204.208 257.108C202.836 257.767 204.309 255.958 204.467 255.094C203.018 256.664 202.189 257.541 201.47 258.187L200.843 258.918L201.026 258.633C199.941 259.778 198.803 260.861 197.562 261.841L197.585 261.931C199.612 261.255 201.751 261.306 200.293 263.03C201.21 262.176 202.055 261.299 202.926 260.43C202.171 261.049 202.654 260.313 203.555 259.364L203.802 259.473C203.671 259.679 203.486 259.863 203.316 260.052C226.685 236.564 233.987 207.641 241.056 184.863C241.66 182.911 242.175 180.942 242.646 178.966L242.619 178.963ZM220.308 233.647C219.654 235.544 220.63 234.35 220.43 235.329C218.714 237.422 219.873 234.901 220.308 233.647ZM222.704 225.249C222.556 225.914 223.316 224.295 223.657 223.986L223.085 225.942C222.274 226.852 221.935 227.156 222.704 225.249ZM223.111 226.918C223.383 226.23 223.622 225.525 223.836 224.807C223.61 225.745 223.632 226.239 223.49 225.971C223.607 226.796 223.358 226.714 223.111 226.918L222.742 227.902C222.808 227.284 222.958 227.05 223.111 226.918ZM225.168 220.756C225.475 220.083 225.655 219.697 225.782 219.411C225.135 220.225 226.381 218.005 225.782 219.411C225.848 219.325 225.885 219.275 225.987 219.144C224.737 222.398 225.645 220.443 225.168 220.756ZM178.107 99.1315L178.955 99.744L177.868 99.5451C178.132 99.5252 178.115 99.2684 178.102 99.13L178.107 99.1315ZM179.283 100.516L178.777 100.943L178.626 100.69L179.283 100.516ZM150.742 157.156C150.859 156.918 150.737 156.567 150.85 156.327C152.047 156.622 150.734 156.56 150.742 157.156ZM147.2 169.746L147.915 169.512C147.797 169.75 147.739 169.866 147.438 169.863L147.2 169.746ZM134.414 222.884C134.624 221.981 134.852 223.08 135.106 223.237C134.678 223.811 134.668 223.041 134.414 222.884ZM134.716 225.35L134.427 224.903L135.424 225.231C135.125 225.257 134.942 225.212 134.716 225.35ZM134.342 229.471C135.306 228.48 135.59 226.457 136.211 225.674L137.388 221.838C136.99 221.509 136.562 221.227 136.091 221.082C136.335 221.711 136.816 222.972 135.787 222.824C135.543 222.196 135.571 221.247 134.945 221.005C136.248 220.828 134.99 222.065 136.151 221.671C136.236 221.306 135.908 221.043 135.765 220.814C136.163 221.194 136.657 220.735 136.954 220.715C137.319 219.562 138.019 219.049 138.501 217.843C138.53 217.84 138.58 217.839 138.614 217.838L138.848 217.076C138.327 216.457 137.531 215.839 137.01 215.841C137.177 215.114 137.73 215.245 137.603 214.546C136.285 215.193 137.83 214.408 136.767 213.97C136.823 213.31 137.365 213.919 137.703 213.709C137.617 213.571 137.329 213.214 137.037 213.107C136.868 213.128 136.693 213.187 136.53 213.338C136.667 213.072 136.851 213.039 137.037 213.107C137.87 212.999 138.75 214.108 139.703 214.289L139.974 213.404L139.56 213.277L139.601 213.105L140.013 213.276L140.293 212.365C138.865 211.928 137.175 211.544 136.351 211.582C135.726 211.34 137.216 211.209 137.365 210.959C138.639 210.493 136.924 209.514 137.533 208.99L137.959 209.663C138.258 209.637 138.21 208.571 137.882 208.308C138.253 208.394 139.587 209.374 140.108 209.209C140.661 208.097 139.006 206.375 137.905 206.116L138.475 208.255C137.555 208.04 137.96 206.703 136.853 206.442L137.682 204.889C137.648 205.108 137.708 205.826 138.281 205.728C138.453 205.003 138.553 205.408 139.118 205.061C139.634 205.734 140.668 206.795 141.699 207.778L142.128 206.381C141.112 205.549 139.992 204.803 139.544 204.492C139.971 203.923 141.831 204.74 142.159 205.003C142.637 203.773 139.813 202.924 140.478 201.74L139.913 202.087C139.824 201.735 140.547 200.765 140.153 200.773C140.742 200.679 142.02 200.819 142.261 201.201L140.793 199.526C140.937 199.749 142.516 200.115 142.77 200.272C142.964 199.839 141.22 198.957 140.876 199.165C142.261 198.627 141.585 198.66 143.114 198.346C143.087 198.052 141.464 197.868 141.237 198.005C141.003 197.29 141.304 197.002 141.558 196.778C141.551 196.764 141.537 196.754 141.536 196.737L141.596 196.744C141.874 196.494 142.052 196.297 141.306 195.626L143.709 197.045L141.597 196.739C141.597 196.739 141.574 196.76 141.559 196.772C141.813 197.589 143.344 197.907 144.633 198.213L144.833 197.558L142.098 195.142C142.353 195.298 143.776 195.913 143.958 195.958C142.64 195.364 143.197 192.91 143.746 191.797L143.702 191.974C144.101 192.353 144.794 191.463 144.438 190.907C144.693 191.063 144.582 191.13 144.538 191.312C145.811 190.847 142.773 189.657 144.23 189.231C143.876 189.912 144.384 190.224 144.943 190.356C144.629 189.611 145.591 188.407 143.887 188.197C144.34 187.922 144.241 187.517 145.05 187.799L144.535 186.046C144.666 186.203 145.112 186.447 145.356 186.051C144.89 186.804 146.153 188.053 144.967 188.159C145.959 188.486 146.59 188.344 147.308 188.995C147.316 187.273 145.882 185.888 145.03 184.541L146.177 183.376L145.739 183.181L146.963 183.293C146.756 183.039 146.56 182.856 146.678 182.853C146.79 182.854 146.931 182.942 147.078 183.065C147.067 182.9 147.006 182.735 146.908 182.633C147.529 182.762 148.145 183.219 148.694 183.673C148.778 183.654 148.862 183.635 148.945 183.621C148.397 182.726 147.713 181.688 146.759 182.044L147.682 181.443C146.833 180.142 147.016 180.383 146.521 178.966C146.939 179.027 147.183 179.438 147.539 179.318C146.508 178.078 149.674 177.723 148.594 177.19C148.521 176.424 147.688 176.605 147.504 176.073C147.626 176.132 147.864 176.25 147.924 176.128L147.257 175.364C147.618 175.246 147.68 176.009 148.216 175.541C147.901 174.359 147.659 173.652 148.307 172.944C148.473 171.708 146.514 172.949 146.984 172.002C147.699 172.059 148.542 172.177 148.829 171.588C148.464 171.118 147.929 170.999 147.804 170.35L148.821 170.702C148.933 170.171 148.869 169.704 149.649 169.937C149.339 169.378 149.503 169.115 149.741 168.941C149.434 167.991 147.472 168.878 147.012 168.933C148.022 168.397 147.733 167.732 149.111 167.674L149.179 168.439C150.898 167.377 148.144 166.611 150.534 166.611C150.3 167.082 150.669 167.849 151.327 167.732L151.016 166.848C151.314 166.844 151.078 167.32 151.497 167.085C151.335 166.811 150.933 166.224 150.647 165.934L150.71 165.965L150.936 164.607C150.82 164.84 151.18 165.018 151.296 164.785L151.015 163.764C151.196 164.105 151.595 163.936 151.877 163.603C152.526 162.599 149.829 162.013 151.139 161.48C151.081 161.597 151.203 161.656 151.143 161.778L151.739 161.479C149.582 160.717 152.312 158.824 150.151 158.06C151.227 157.707 150.692 158.176 151.478 159.301L152.311 158.829C152.309 159.125 152.077 159.3 152.197 159.656C153.386 159.063 152.477 157.884 152.054 157.239C152.473 157.004 153.616 158.004 153.545 156.941C153.532 155.465 151.87 156.707 151.862 155.82L153.171 155.584C152.622 154.291 153.631 153.755 154.041 152.93C154.009 152.707 153.921 152.574 153.814 152.485C153.811 152.495 153.808 152.506 153.794 152.513L153.68 152.411C153.345 152.263 152.917 152.378 153.069 151.865L153.68 152.411C153.726 152.425 153.767 152.454 153.809 152.484C154.584 151.709 153.293 150.205 153.88 149.624C154.065 149.859 154.713 149.443 155.015 149.446L154.7 147.973C154.825 148.621 155.488 148.796 156.086 149.092C156.14 148.677 155.839 148.383 155.838 148.092C156.018 148.327 156.203 148.562 156.558 148.447L155.883 146.797C155.747 146.839 155.659 146.98 155.594 147.1C155.684 146.769 155.495 145.928 156.171 145.62C156.409 145.738 156.594 145.974 156.832 146.092C155.995 146.266 156.534 146.683 156.957 147.036C157.124 146.091 157.195 146.863 157.79 146.564C157.962 145.912 157.183 145.388 156.583 145.389C157.057 144.739 157.296 144.561 156.869 143.618L157.712 144.028L157.644 143.263L158.554 144.146C159.558 143.027 157.113 143.442 158.055 142.141L158.833 142.38C158.709 141.726 157.457 141.135 158.521 140.986C158.217 140.299 157.137 141.574 157.369 140.252C157.837 140.149 158.282 139.76 158.553 139.44C158.326 138.923 157.537 139.47 157.566 139.758C157.787 137.722 160.586 139.381 160.09 137.348C159.352 137.766 158.737 136.396 158.336 137.795C158.079 136.989 159.863 136.831 159.225 135.88L160.08 136.635C160.177 136.39 159.9 135.998 159.823 135.828L160.568 136.119C159.49 134.853 161.695 134.724 160.092 133.673C161.365 134.449 160.207 133.008 160.847 132.835C161.603 133.839 160.202 134.848 161.453 135.332C161.937 135.123 161.402 134.64 161.878 134.439C161.762 134.179 161.752 134.047 161.962 134.403C161.925 134.414 161.903 134.43 161.878 134.439C162 134.717 162.239 135.142 162.468 135.308C163.522 134.445 162.221 133.374 162.091 132.613L162.032 133.865C160.786 133.382 161.977 133.277 161.074 132.642C161.937 132.274 161.084 131.515 161.65 131.168C161.6 131.293 161.727 131.337 161.682 131.463C162.039 130.19 164.224 130.474 164.414 129.984C164.733 129.545 164.325 128.396 163.679 128.567C163.45 128.055 163.548 130.362 162.117 129.134C164.246 128.998 161.855 127.431 163.648 126.258C164.117 127.157 164.846 126.183 165.17 126.954C165.247 126.155 164.968 126.041 164.528 125.543L165.195 125.501C164.155 124.113 164.079 124.907 163.818 123.204C164.131 123.843 164.864 122.876 165.173 123.385C165.339 122.988 165.284 122.529 165.017 122.122L165.087 122.205C165.239 120.613 166.215 121.208 165.969 119.639L165.568 119.667C165.145 117.579 166.468 115.511 166.585 113.522L166.088 114.085C166.333 113.942 165.898 112.661 166.638 112.256C166.637 112.385 166.736 112.628 166.656 112.726C167.065 112.835 167.732 112.793 167.971 112.38L167.41 112.017L167.941 111.984C168.16 111.307 166.995 111.912 167.214 111.235C169.1 111.383 168.345 108.387 170.08 108.276C168.948 107.425 169.503 109.503 168.502 108.642C168.759 108.497 169.024 108.472 169.261 108.064L168.452 107.983C169.517 106.06 170.407 105.477 170.808 103.603L170.95 103.724C171.446 103.166 171.416 102.771 170.845 102.277C171.244 102.253 171.286 102.775 171.675 102.62C170.067 100.874 173.81 100.768 172.659 99.6487C173.342 99.903 174.105 99.8237 174.842 99.7586C175.728 99.678 176.565 99.6155 177.12 100.161L177.08 99.6335C178.051 100.099 176.654 101.114 177.635 101.712L176.111 102.867C176.508 102.939 177.003 103.353 177.208 103.159C177.115 103.533 177.069 103.866 177.769 103.555C174.09 106.299 175.485 110.711 173.034 113.776C173.054 114.039 173.453 114.016 173.722 113.998C172.542 114.341 174.045 114.768 174.075 115.164L172.369 115.67C172.671 116.182 173.198 116.014 173.47 116.131C173.206 117.997 171.298 119.309 171.691 121.002C171.044 121.307 170.583 120.545 170.224 121.095C171.94 120.72 170.369 123.07 171.564 122.86C169.828 122.971 170.563 124.937 168.485 124.009C168.135 124.696 169.223 124.89 169.476 124.738C169.137 125.552 168.919 126.229 169.384 127.121C168.741 127.428 168.743 131.127 166.885 131.38C168.096 131.192 167.42 131.589 167.73 132.221L168.798 132.062L168.355 133.14C168.378 133.393 168.318 133.442 168.237 133.417C168.133 133.592 167.713 133.206 167.331 133.615C167.044 134.35 167.538 134.546 167.892 135.108L168.066 135.032L167.996 135.571C167.849 135.94 167.478 133.957 166.626 135.038C166.877 135.132 167.882 136.235 167.116 136.358C167.36 135.745 166.686 135.627 166.339 135.773L166.002 136.632L167.269 136.702C166.429 139.203 164.787 141.564 164.038 144.278C163.016 143.925 163.404 146.165 161.958 145.459L162.138 145.402C162.192 144.697 160.882 145.224 160.885 145.818C161.538 145.403 162.095 147.292 162.739 145.995L163.131 147.273C165.857 148.753 162.021 150.016 162.466 151.904C162.388 151.757 162.244 151.68 162.157 151.636C162.652 153.343 160.395 154.588 160.756 155.056L159.918 154.939C160.773 156.533 160.831 156.708 159.889 158.008C159.768 157.948 159.588 157.714 159.35 157.887C159.837 158.417 160.317 158.951 159.849 159.893L159.611 159.775L159.267 161.37C156.809 160.606 159.954 164.497 157.146 164.145C157.774 164.668 157.65 165.877 157.837 166.489C157.735 166.457 157.611 166.459 157.474 166.506C158.615 167.511 156.531 168.102 156.477 168.808C156.662 169.335 157.138 169.279 157.616 169.219C156.305 169.751 158.061 171.929 157.525 172.106C157.231 172.699 156.506 172.051 155.912 172.054C155.862 173.057 158.185 172.583 156.827 173.526C156.763 173.35 156.759 173.052 156.583 173.116C156.227 173.527 153.138 173.508 153.56 174.158L154.096 173.981C154.463 175.045 151.461 175.417 153.08 176.07L153.877 176.225C152.396 177.405 153.985 176.952 152.625 178.191L152.504 178.132C152.45 178.837 151.373 178.899 152.517 179.602L152.755 179.429C152.601 180.277 152.481 180.324 152.169 181.14C152.257 181.274 152.317 181.734 152.02 181.772C153.037 182.123 151.901 183.856 151.725 184.211C151.774 183.504 151.238 183.681 150.761 183.741C151.486 184.389 151.485 184.685 150.716 185.037C151.977 185.508 153.315 186.036 153.06 187.121C152.916 186.898 152.889 186.604 152.59 186.63C152.291 186.656 152.506 186.996 152.578 187.108C152.279 187.133 152.179 186.728 151.698 186.709C152.705 187.807 151.404 187.979 151.519 189.156C151.232 188.704 150.893 188.913 150.417 188.896C151.845 189.423 148.716 189.936 150.716 190.112C148.964 191.808 149.045 195.269 147.589 195.689C146.997 195.743 147.677 196.572 147.593 196.938L146.969 196.691C147.821 198.038 147.162 197.595 147.969 199.124C147.361 198.406 146.945 198.502 146.198 198.805L147.276 200.014L146.242 199.865C146.525 200.31 146.259 200.631 145.987 200.951C146.032 200.768 145.915 200.839 145.733 200.794C147.051 201.389 146.451 202.777 147.032 203.202C145.587 203.15 147.075 204.267 145.741 204.143C145.895 204.319 145.996 204.518 146.074 204.721C146.71 204.726 147.384 204.865 146.999 205.099C147.001 205.128 146.993 205.154 146.996 205.182L147.736 205.27C148.468 205.438 147.406 205.616 146.682 205.842C146.525 205.95 146.338 206.033 146.176 206.123C146.161 206.169 146.149 206.21 146.129 206.237C146.115 206.211 146.107 206.18 146.115 206.155C145.875 206.299 145.719 206.481 145.892 206.847C144.345 207.638 146.736 209.915 144.714 210.688C144.941 210.551 145.095 210.302 144.841 210.145C144.587 211.231 143.157 211.951 143.543 212.808L144.279 212.984C144.366 213.866 144.411 214.541 144.172 215.156L144.98 215.442C144.402 216.267 145.117 218.629 143.261 218.676C143.847 219.102 142.679 219.879 142.739 220.469L142.074 220.41C141.662 221.022 141.754 221.509 141.814 221.97C141.894 221.927 141.944 221.875 142.036 221.831C142.415 222.328 142.121 222.629 141.722 222.854C141.616 223.09 141.412 223.335 141.031 223.61C140.482 223.319 141.191 223.161 141.722 222.854C141.865 222.551 141.848 222.26 141.809 221.968C140.082 222.944 140.981 224.613 140.52 225.787L140.338 225.742L140.415 227.097C139.944 226.606 140.73 227.457 140.464 227.778C140.646 228.26 140.295 228.84 139.751 229.171L139.482 229.939C139.322 228.945 138.563 229.725 137.82 229.553L138.246 230.226C137.837 230.319 137.777 229.73 137.511 230.051C137.798 230.503 137.471 231.477 138.124 232.013C138.317 232.022 138.529 231.953 138.716 231.853C138.682 231.798 138.693 231.801 138.731 231.841C138.744 231.834 138.763 231.828 138.783 231.818C138.768 231.83 138.761 231.834 138.745 231.851C138.804 231.914 138.906 232.018 138.99 232.072C139.031 232.011 139.069 231.945 139.127 231.862C139.178 232.135 139.097 232.144 138.99 232.072C138.642 232.642 139.009 232.503 139.338 232.581C137.992 232.935 138.634 233.563 137.144 233.693C138.861 233.425 136.662 235.303 138.222 235.289C136.921 235.461 138.061 235.631 136.982 235.664C137.52 235.023 136.695 233.97 136.381 233.224L135.517 233.597C134.338 232.822 136.398 232.441 136.064 231.958C136.294 232.286 135.832 232.715 135.539 232.647L136.574 232.797C137.222 232.089 136.653 231.187 136.342 230.448C135.844 230.905 135.956 229.591 135.136 229.782L135.124 230.259C134.998 230.288 134.928 230.188 134.84 230.127C134.637 229.987 134.48 229.732 134.327 229.5L134.342 229.471ZM138.519 202.616C139.669 202.717 139.359 202.908 139.614 203.534C139.338 203.231 139.08 204.036 138.75 203.723C139.471 203.127 137.871 203.324 138.519 202.616ZM150.139 162.88L150.197 162.764L151.156 162.94L150.139 162.88ZM133.431 248.777L133.342 248.464C133.614 248.71 133.558 248.765 133.431 248.777L133.618 249.444C133.45 249.135 133.157 248.922 133.48 249.072C132.848 248.688 133.22 248.79 133.431 248.777ZM134.572 246.133C134.291 246.081 134.12 245.927 134.325 245.442L134.572 246.133C134.895 246.193 135.367 246.114 135.603 246.22C135.232 246.134 134.967 246.45 134.739 246.593L134.572 246.133ZM135.572 244.296C135.311 244.563 134.897 244.526 134.736 244.521C134.759 244.445 134.788 244.37 134.814 244.305L134.79 244.309C134.911 244.043 134.976 243.901 135 243.841C134.968 243.91 134.903 244.069 134.814 244.305L135.572 244.296ZM138.013 236.646L137.388 236.404L137.73 236.201L138.013 236.646ZM138.302 234.133C138.468 234.032 138.673 233.983 138.717 233.694L138.746 234.33C138.79 234.148 138.491 234.174 138.308 234.134L138.302 234.133ZM137.791 238.027L137.099 237.675L136.927 237.158L137.791 238.027ZM139.457 230.861C139.756 230.835 138.731 230.599 138.958 230.461C138.842 229.29 140.225 231.331 139.457 230.861ZM139.23 231.491C139.23 231.491 139.167 231.477 139.099 231.517C139.191 231.4 139.265 231.266 139.302 231.11C139.258 231.292 139.238 231.409 139.225 231.489L139.23 231.491ZM135.462 234.705C135.462 234.705 135.448 234.751 135.44 234.777C135.44 234.34 135.331 233.91 135.999 234.07C136.17 234.587 136.341 235.109 135.462 234.705ZM135.334 235.253C135.402 235.14 135.424 235.013 135.431 234.88C135.456 235.129 135.686 235.418 135.334 235.253ZM135.107 231.575C135.077 231.454 135.024 231.353 134.884 231.316L135.305 230.746C135.55 230.804 135.253 231.189 135.107 231.575ZM134.593 233.834L133.741 233.73L134.012 233.41L134.593 233.834ZM134.197 232.208L133.997 232.639L133.77 232.776L134.197 232.208ZM133.009 234.803C133.158 234.827 133.245 234.909 133.361 234.968C134.192 235.362 134.302 236.409 135.084 236.341C134.63 236.616 134.12 236.308 134.209 237.186C134.635 237.859 135.438 236.903 135.849 236.805C136.047 237.509 136.303 237.587 136.573 237.693C136.618 237.69 136.669 237.689 136.711 237.679L136.692 237.741C136.889 237.829 137.103 237.99 137.291 238.489C136.678 238.699 136.361 238.82 136.169 239.063L136.195 240.33C136.195 240.33 136.23 240.324 136.249 240.318C136.41 240.194 136.58 240.079 136.764 239.99C136.929 240.091 136.51 240.253 136.249 240.318C136.063 240.468 135.894 240.635 135.75 240.814C135.703 241.147 135.638 241.435 135.86 241.788C135.774 242.159 135.429 241.897 135.23 241.78C135.162 242 135.152 242.215 135.159 242.43C135.281 242.579 135.417 242.738 135.475 242.896C135.402 242.896 135.315 242.908 135.259 242.925C135.196 242.766 135.168 242.6 135.159 242.43C134.99 242.215 134.871 242.017 135.079 241.795C135.074 241.704 135.134 241.728 135.225 241.778C135.326 241.446 135.506 241.115 135.744 240.813C135.772 240.614 135.799 240.399 135.75 240.138C135.102 240.845 134.998 239.196 134.814 240.399C134.642 239.882 134.044 239.933 134.217 239.203C135.079 239.076 135.197 239.75 135.83 240.151C135.919 239.585 135.992 239.277 136.164 239.061L136.161 238.797L136.233 238.909L136.686 237.744C136.645 237.732 136.61 237.715 136.571 237.698C135.269 237.836 133.139 237.574 132.768 236.884C132.761 236.871 132.73 236.861 132.723 236.848C132.762 236.832 132.764 236.805 132.796 236.792L133.088 235.841C132.975 235.644 132.805 235.468 132.579 235.382C132.788 235.25 132.984 235.523 133.163 235.595L133.182 235.534L133 234.812L133.009 234.803ZM133.434 245.135L133.776 244.585L133.645 244.226L133.9 244.382L133.776 244.585L134.061 245.372C133.922 245.15 133.623 245.176 133.435 245.13L133.434 245.135ZM132.694 249.172L132.091 247.98L132.136 247.798L132.694 249.172ZM132.533 241.484L133.28 241.182L133.325 242.242C133.069 242.091 132.588 242.072 132.899 241.569L132.533 241.484ZM132.43 238.006C132.437 237.946 132.454 237.89 132.41 237.815C132.444 237.775 132.459 237.819 132.492 237.801C132.712 237.65 132.882 237.881 132.807 238.2L132.442 238.11C132.416 238.069 132.43 238.04 132.435 238.007L132.43 238.006ZM130.758 244.863C130.707 244.847 130.661 244.833 130.588 244.85C130.646 244.716 130.7 244.761 130.758 244.863C130.991 244.923 131.042 245.196 131.324 245.025C131.479 244.776 131.224 244.62 131.152 244.508C131.86 244.389 132.343 244.403 133.008 244.462C132.936 244.35 131.889 244.678 131.506 245.07L131.573 245.18C131.078 245.588 130.892 245.083 130.758 244.863ZM129.497 252.058L129.214 251.613L129.668 251.338C130.034 251.423 129.356 251.842 129.501 252.065L129.497 252.058ZM133.167 246.698C132.741 246.025 132.287 246.3 131.889 245.92C132.681 245.436 132.88 246.247 133.167 246.698ZM129.665 255.546L129.421 254.917L129.919 255.702L129.665 255.546ZM129.672 253.824L129.966 253.797C130.576 253.268 129.54 251.881 130.798 251.887C130.305 252.345 130.603 253.562 130.509 254.4L129.672 253.824ZM132.495 249.603C132.737 250.237 133.008 249.918 133.342 249.706C133.207 250.728 132.355 250.624 132.495 249.603ZM129.995 259.927C129.818 259.884 130.647 259.898 130.673 260.343C130.562 260.269 129.86 260.149 129.995 259.927ZM133.744 251.061C133.7 251.075 133.666 251.076 133.606 251.108C133.63 250.153 133.401 250.681 133.884 250.695C133.797 250.87 133.759 250.976 133.744 251.061C134.199 250.926 133.657 251.454 133.744 251.061ZM134.277 249.831L134.034 249.202C134.56 249.039 134.853 249.012 134.913 249.601C134.771 249.372 134.575 249.81 134.277 249.831ZM136.291 244.086L136.076 243.746L136.757 244.576L136.286 244.085L136.291 244.086ZM136.625 242.633C137.142 242.316 137.297 241.994 137.194 241.616C137.467 242.024 137.764 242.479 137.733 242.889C137.518 242.549 137.025 243.007 136.626 242.628L136.625 242.633ZM183.978 271.804L185.724 270.364C185.159 270.784 185.61 270.682 185.722 270.755C185.225 271.006 184.844 271.135 183.975 271.797L183.978 271.804ZM192.242 265.956L193.053 264.901L193.196 265.364L192.242 265.956ZM195.73 263.36L196.9 261.391L196.863 262.096L195.732 263.355L195.73 263.36ZM206.088 251.49C206.632 250.426 207.227 249.254 208.132 248.054C207.673 248.932 209.233 247.384 208.91 248.293C207.621 249.447 206.763 250.438 206.089 251.485L206.088 251.49ZM211.783 244.691L212.56 242.523L212.175 243.777L211.781 244.697L211.783 244.691ZM211.384 249.751L209.813 251.004L212.052 247.885C212.039 248.217 212.583 248.031 211.118 249.669L211.379 249.749L211.384 249.751ZM214.319 242.28C213.672 243.167 213.333 243.634 213.189 243.83C213.354 243.601 213.737 243.064 214.286 242.297L213.393 242.745C214.194 241.794 214.607 241.669 214.79 241.585C214.613 241.833 214.441 242.082 214.286 242.297L214.319 242.28ZM218.367 234.993L217.778 236.368C218.006 236.354 217.939 236.736 216.893 238.43L217.778 236.368C217.514 236.388 216.862 236.926 216.781 236.734C217.048 236.776 217.876 235.592 218.367 234.993ZM215.508 241.872L215.51 241.537L216.043 240.839C216.427 240.078 216.733 239.265 217.079 238.482C216.864 239.11 217.239 238.838 217.37 238.867C216.922 239.524 216.527 240.209 216.043 240.839L215.506 241.877L215.508 241.872ZM219.899 238.048C219.737 238.01 220.148 237.145 219.54 237.887C218.939 238.806 218.962 239.149 218.847 239.471C217.848 240.318 217.343 240.56 216.7 240.794C216.591 241.113 218.315 239.381 219.408 237.858L219.516 237.545C220.776 235.883 220.122 237.411 219.894 238.046C219.93 238.057 219.957 238.077 220.066 237.976C219.768 238.456 219.794 238.335 219.894 238.046L219.899 238.048ZM223.061 229.253C223.521 227.844 224.067 226.484 224.436 225.042C224.156 226.265 223.744 227.426 223.379 228.618L223.061 229.253ZM225.197 223.417C225.764 221.442 225.073 222.747 224.453 223.709C225.915 220.129 226.664 219.821 225.197 223.417ZM239.831 178.455L239.79 179.209L239.083 180.419L239.832 178.45L239.831 178.455ZM237.927 183.898C237.966 184.061 238.517 183.872 238.193 184.78C238.324 184.775 237.555 185.474 237.927 183.898ZM234.542 200.246L234.18 202.284L234.446 199.92L234.542 200.246ZM239.65 182.585C239.405 182.891 239.236 183.807 239.148 184.278L238.826 182.864L239.649 182.59L239.65 182.585ZM229.709 214.18C230.785 212.188 231.681 208.098 232.65 205.065L232.87 206.392L232.555 206.743C231.426 209.128 231.005 213.184 229.708 214.185L229.709 214.18ZM230.209 215.178C229.94 215.18 231.101 213.163 231.217 212.494L230.987 213.828L230.209 215.178Z" fill="#F79E42"/>
<path d="M200.296 259.422C200.35 259.338 200.421 259.27 200.491 259.191C200.362 259.319 200.234 259.442 200.105 259.571C200.18 259.51 200.197 259.509 200.296 259.422Z" fill="#F79E42"/>
</svg>
