<svg width="147" height="152" viewBox="0 0 147 152" fill="none" xmlns="http://www.w3.org/2000/svg">
<g clip-path="url(#clip0_31_457)">
<path d="M81.0564 15.3966C81.1471 15.4498 81.4235 15.7178 81.7492 15.9446C85.6309 18.6313 86.5138 21.5389 86.8907 21.6167C87.3653 21.714 90.8401 18.7578 96.2488 20.191C103.55 22.1255 106.317 31.0409 106.828 31.6688C107.653 32.6801 116.835 29.5608 120.237 41.8355C121.647 46.9249 120.248 55.1169 119.274 60.3419C115.679 79.6409 109.803 86.0987 105.349 103.83L105.641 103.962C112.019 98.9734 119.936 103.51 116.944 111.765C113.641 120.873 100.717 126.158 97.6192 128.698C96.5388 129.585 96.0235 131.828 92.2971 132.651C90.6752 133.009 88.9859 132.126 88.5319 132.128C86.7109 132.139 74.3841 135.901 66.0118 133.502C55.6699 130.541 55.7261 120.362 66.3501 118.712C53.1974 109.45 43.8171 107.951 30.9152 97.9083C23.5303 92.1607 12.6751 82.945 14.6546 72.458C15.5848 67.543 19.3304 66.397 19.3505 65.9861C19.3936 65.1123 15.0448 56.0919 19.8998 49.1735C23.047 44.6909 27.3908 44.4558 27.7246 44.1126C28.0994 43.7285 26.0417 38.5396 28.8073 33.6595C33.2605 25.804 43.9835 29.9021 44.7345 29.4296C45.3296 29.0527 45.1325 21.7652 53.421 19.3471C59.6859 17.518 64.2047 22.2517 64.8658 22.1545C65.4762 22.0651 66.2328 20.245 66.6902 19.6831C70.3249 15.2421 75.529 12.1521 81.053 15.3951L81.0564 15.3966Z" fill="#F79E42"/>
<path d="M83.8582 96.7134C80.0349 82.3497 76.2839 67.9305 72.2952 53.6151C71.0948 49.3126 65.6189 29.3363 64.5953 27.201C62.3414 22.4951 54.5392 19.8104 50.1406 24.8021C48.5465 26.6111 47.6113 30.772 48.1568 33.085C49.0364 36.8147 75.8759 94.1503 79.9893 102.794C84.04 111.309 88.3621 119.705 92.2889 128.281C89.4449 118.016 86.5575 107.756 83.8177 97.4593C83.8071 97.4238 83.8772 96.7711 83.8616 96.715L83.8582 96.7134Z" fill="#EE6B47"/>
<path d="M44.9797 35.4154C42.7886 32.3726 37.1126 31.122 33.8301 32.7391C30.7142 34.2736 29.2738 40.7633 31.675 45.2979C32.6098 47.0634 51.2971 72.7681 54.8389 77.8622C61.9148 88.0449 68.7194 98.4145 75.841 108.569C80.6981 115.493 85.8243 122.24 90.548 129.26C86.5958 121.021 82.4091 112.901 78.4281 104.675C67.2614 81.5981 56.6028 58.2725 44.9821 35.4145L44.9797 35.4154Z" fill="#EE6B47"/>
<path d="M44.6091 67.9535C42.6661 65.2683 31.5024 49.9072 30.67 49.079C25.048 43.4812 16.3173 55.5718 23.1481 65.689C23.9855 66.9271 41.7252 83.3937 44.7476 86.3709C54.0672 95.5599 63.0564 105.116 72.4597 114.22C77.5123 119.11 82.8 123.785 87.8841 128.647C83.3101 122.944 79.088 116.998 74.8334 111.056C64.6205 96.7914 54.8888 82.1703 44.6091 67.9535Z" fill="#EE6B47"/>
<path d="M86.8969 54.9064C86.5175 50.5338 85.0662 25.4954 84.6431 24.0078C83.8382 21.1723 79.1555 16.9771 76.1154 17.1037C72.2329 17.2662 68.3966 21.9215 68.429 25.7566C68.4631 29.6786 82.6897 83.0061 84.9974 91.9931C88.0629 103.938 91.1319 115.884 94.0011 127.878C92.4481 111.393 90.6518 94.9302 89.1322 78.4444C88.4083 70.5998 87.5799 62.7552 86.9003 54.908L86.8969 54.9064Z" fill="#EE6B47"/>
<path d="M116.018 39.2139C114.282 35.9768 108.402 33.7821 106.708 38.1928C105.522 41.2836 102.965 69.2426 102.419 74.9659C101.354 86.0949 100.755 97.2964 99.6328 108.416C99.2506 112.193 98.1352 118.78 98.0818 121.071C99.6913 116.594 102.814 101.472 105.222 93.9968C107.371 87.3211 110.513 81.1172 112.56 75.1881C115.438 66.8555 120.205 47.0263 116.017 39.2173L116.018 39.2139Z" fill="#EE6B47"/>
<path d="M42.0464 87.3878C39.6527 85.073 24.8748 70.8393 23.8467 70.1217C19.9279 67.3813 17.4218 71.684 17.5138 75.2653C17.7204 83.2065 25.9384 90.2332 31.7204 94.8483C43.2871 104.078 48.6529 104.664 58.7458 110.565C62.2036 112.586 65.4035 115.03 68.7308 117.244C73.5759 120.469 78.2769 123.905 83.2059 127.008C78.7785 123.317 74.5215 119.472 70.3442 115.501C60.7141 106.35 51.5962 96.6252 42.0455 87.3853L42.0464 87.3878Z" fill="#EE6B47"/>
<path d="M104.352 34.9527C104.212 31.1836 100.604 25.7932 97.2727 23.9366C93.9664 22.0932 88.9712 22.4812 88.0395 26.1274C87.3395 28.8682 90.3558 63.3207 90.8376 69.2145C92.4134 88.4236 94.7536 107.592 95.4001 126.862C95.4833 126.937 95.566 127.014 95.6482 127.092C97.6043 103.621 99.5603 80.1501 101.516 56.679C101.485 52.9591 104.388 36.0505 104.348 34.957L104.352 34.9527Z" fill="#EE6B47"/>
<path d="M107.65 105.796C107.372 105.92 104.724 107.473 104.598 107.596C103.988 108.196 101.14 122.122 100.292 124.126C104.65 121.184 109.887 117.918 112.797 113.412C117.064 106.8 113.548 103.121 107.651 105.798L107.65 105.796Z" fill="#EE6B47"/>
<path d="M69.1477 121.14C67.9858 120.831 64.9626 121.758 63.9101 122.307C60.6206 124.026 59.3876 127.966 65.9471 130.285C71.1084 132.111 77.6638 131.433 82.9561 130.425C80.6508 129.549 69.9537 121.352 69.1477 121.14Z" fill="#EE6B47"/>
<path d="M98.0295 121.576C98.2437 121.275 98.0735 121.094 98.0819 121.071C98.0804 121.097 97.681 121.409 98.0295 121.576Z" fill="#EE6B47"/>
</g>
<defs>
<clipPath id="clip0_31_457">
<rect width="111.753" height="119.869" fill="white" transform="translate(0 39.4681) rotate(-20.6815)"/>
</clipPath>
</defs>
</svg>
