<?xml version="1.0" encoding="UTF-8"?>
<svg id="Layer_2" data-name="Layer 2" xmlns="http://www.w3.org/2000/svg" viewBox="0 0 2000 202.86">
  <defs>
    <style>
      .cls-1 {
        fill: #c9e9f3;
        stroke-width: 0px;
      }
    </style>
  </defs>
  <g id="Layer_1-2" data-name="Layer 1">
    <path class="cls-1" d="M2000,202.86H0S0,0,0,0c48.86,0,74.87,15.86,112.31,23.79,61.25,12.98,120.66,33.1,183.82,33.87,89.56,1.08,177.3-20.69,264.73-37.24,103.96-19.69,209.31-10.79,313.1,5.12,67.63,10.37,129.88,24.67,199.06,20.97,66.95-3.59,130.33-26.44,195.99-37.55,118.07-19.97,232.95,9.5,346.68,38.95,43.2,11.19,81.15,23.26,125.9,17.11,46.42-6.37,90.29-24.16,135.62-35.18,8.43-2.05,61.9-25.47,122.77-29.85v202.86Z"/>
  </g>
</svg>